<?xml version="1.0" encoding="UTF-8"?> <svg xmlns="http://www.w3.org/2000/svg" xmlns:xlink="http://www.w3.org/1999/xlink" width="512" height="181.86" viewBox="0 0 512 181.86"><defs><style>.cls-1{fill:url(#linear-gradient);}.cls-2{fill:#fff;}</style><linearGradient id="linear-gradient" x1="254.81" y1="82.34" x2="254.81" gradientUnits="userSpaceOnUse"><stop offset="0" stop-color="#006d9e"></stop><stop offset="0.69" stop-color="#009bcc"></stop><stop offset="1" stop-color="#00b2e2"></stop></linearGradient></defs><title>arcules_color_gradient_inverse_rgb</title><g id="Layer_2" data-name="Layer 2"><g id="Layer_1-2" data-name="Layer 1"><path class="cls-1" d="M310,7.25ZM371.66,38.7ZM104.25,61.79a10.28,10.28,0,1,0,10.27,10.27A10.27,10.27,0,0,0,104.25,61.79Zm301.12,0a10.28,10.28,0,1,0,10.27,10.27A10.27,10.27,0,0,0,405.37,61.79Zm-44-33.36A10.28,10.28,0,1,0,371.66,38.7h0A10.29,10.29,0,0,0,361.38,28.43ZM310,7.25h0a10.28,10.28,0,1,0,10.27,10.27A10.27,10.27,0,0,0,310,7.25ZM254.9,0a10.28,10.28,0,1,0,10.27,10.27A10.27,10.27,0,0,0,254.9,0Zm-55,7.07a10.28,10.28,0,1,0,10.27,10.28A10.28,10.28,0,0,0,199.88,7.07ZM148.55,28.13A10.28,10.28,0,1,0,158.82,38.4,10.27,10.27,0,0,0,148.55,28.13Z"></path><path class="cls-2" d="M499.38,115.22H497V114h6.15v1.24h-2.4v6.35h-1.35Z"></path><path class="cls-2" d="M504.54,114H506l2.31,3.59,2.31-3.59H512v7.59h-1.33v-5.44l-2.4,3.57h0l-2.38-3.55v5.42h-1.31Z"></path><path class="cls-2" d="M163.36,122.42c5.28-5.62,13-8.47,22.84-8.47h21.63v13.48H186.2c-6.06,0-10.49,1.58-13.18,4.7s-4.11,8.48-4.11,15.82,1.36,12.58,4.06,15.74,7.11,4.69,13.23,4.69h21.63v13.48H186.2c-9.88,0-17.56-2.85-22.84-8.47s-7.94-14.15-7.94-25.44,2.67-19.93,7.94-25.53M270.51,159c0,3-.8,5.39-2.36,7s-4.09,2.4-7.51,2.4H248.91c-3.55,0-6.12-.8-7.65-2.39s-2.32-4-2.32-7V114H225.27v45.93c0,14.59,7.49,22,22.27,22h13.88c7.33,0,12.95-1.87,16.71-5.55s5.67-9.22,5.67-16.43V114H270.51Zm86.65,9.38h-28.6c-3.55,0-6.12-.8-7.65-2.39s-2.31-4-2.31-7V114H304.92v45.93c0,14.59,7.49,22,22.27,22h30Zm137.27-14.13a15.74,15.74,0,0,0-3.64-6.66,19.21,19.21,0,0,0-7.15-4.7,31.58,31.58,0,0,0-11.4-1.77H456.8a14.12,14.12,0,0,1-4.48-.59,6.53,6.53,0,0,1-2.6-1.53,5,5,0,0,1-1.32-2.13,8.49,8.49,0,0,1-.4-2.59,6.93,6.93,0,0,1,1.79-5c1.17-1.25,3.13-1.89,5.83-1.89h34.79V114H456a28.68,28.68,0,0,0-9.72,1.48,17.82,17.82,0,0,0-6.76,4.19,15.94,15.94,0,0,0-3.85,6.39,25.46,25.46,0,0,0-1.17,7.87,27,27,0,0,0,1,7.1,16.19,16.19,0,0,0,3.53,6.54,17.74,17.74,0,0,0,7,4.67,31.13,31.13,0,0,0,11.21,1.73h15.34a14.93,14.93,0,0,1,4.72.63,7.46,7.46,0,0,1,2.81,1.59,5.27,5.27,0,0,1,1.41,2.23,9.13,9.13,0,0,1,.44,2.78,7.16,7.16,0,0,1-1.93,5.23c-1.27,1.33-3.35,2-6.18,2H435.69v13.48h37.72a28.94,28.94,0,0,0,10-1.52,18.63,18.63,0,0,0,6.86-4.29,16.7,16.7,0,0,0,3.94-6.48,25.46,25.46,0,0,0,1.22-8,28.58,28.58,0,0,0-1-7.29m-469-.58H50.7l-10-26.24a2.26,2.26,0,0,0-2.32-1.61A2.41,2.41,0,0,0,36,127.47Zm21.59-38.86a13,13,0,0,1,5.56,7.1l23.24,60H61.35l-5.55-14.7H20.15l-5.8,14.7H0l24.28-60a13.45,13.45,0,0,1,5.66-7.09,16.13,16.13,0,0,1,8.53-2,16.46,16.46,0,0,1,8.58,2m87.24,37.34a19.09,19.09,0,0,0,4.52-5,21.34,21.34,0,0,0,2.56-6,25.67,25.67,0,0,0,.82-6.44,24.31,24.31,0,0,0-1.28-7.84,17.65,17.65,0,0,0-4-6.67,19.78,19.78,0,0,0-6.93-4.53A26.85,26.85,0,0,0,120,114H88.25v13.48H120.4c2.87,0,5,.76,6.24,2.25a8.14,8.14,0,0,1,2,5.47,10.23,10.23,0,0,1-.49,3.12,7.65,7.65,0,0,1-1.43,2.6,6.93,6.93,0,0,1-2.49,1.8,9,9,0,0,1-3.37.65l-32.58,0v38.51h13.43V156.34h12.48l15.06,25.52h15.06L128.7,155.07a18.86,18.86,0,0,0,5.59-2.92m260.93-24.72h21.62V114H395.22c-9.88,0-17.56,2.85-22.84,8.47s-7.94,14.19-7.94,25.53,2.67,19.85,7.94,25.44,13,8.47,22.84,8.47h21.62V168.38H395.22c-6.12,0-10.57-1.58-13.23-4.69-1.78-2.08-3-5.1-3.58-9h38.38V141.62H378.36c.59-4.14,1.81-7.33,3.67-9.49C384.73,129,389.16,127.43,395.22,127.43Z"></path></g></g></svg> 